<svg width="784.00625px" height="124.39999999999999px" xmlns="http://www.w3.org/2000/svg" viewBox="-142.003125 12.800000000000004 784.00625 124.39999999999999" style="background: rgba(255, 255, 255, 0);" preserveAspectRatio="xMidYMid"><defs><filter id="editing-hover" x="-100%" y="-100%" width="300%" height="300%"><feFlood flood-color="rgba(100%,100%,100%,0)" result="flood"></feFlood><feComposite operator="in" in2="SourceAlpha" in="flood" result="shadow"></feComposite><feOffset dx="0.2" dy="0.1" in="SourceGraphic" result="offset-1"></feOffset><feOffset dx="-0.2" dy="-0.1" in="shadow" result="offset-2"></feOffset><feMerge><feMergeNode in="offset-2"></feMergeNode><feMergeNode in="offset-1"></feMergeNode></feMerge></filter></defs><g filter="url(#editing-hover)"><g transform="translate(-30.385022401809692, 107.6400032043457)"><path d="M33.02 0L33.02 0Q31.30 0 30.53-0.90L30.53-0.90L30.53-0.90Q29.76-1.79 29.76-3.58L29.76-3.58L29.76-3.58Q25.66 0.77 18.62 0.77L18.62 0.77L18.62 0.77Q11.58 0.77 7.39-3.26L7.39-3.26L7.39-3.26Q3.20-7.30 3.20-15.87L3.20-15.87L3.20-15.87Q3.20-24.13 7.36-28L7.36-28L7.36-28Q11.52-31.87 18.62-31.87L18.62-31.87L18.62-31.87Q22.46-31.87 25.06-30.98L25.06-30.98L25.06-30.98Q27.65-30.08 29.63-28.67L29.63-28.67L29.63-41.73L29.63-41.73Q29.63-42.43 29.34-42.69L29.34-42.69L29.34-42.69Q29.06-42.94 28.10-43.14L28.10-43.14L25.86-43.65L25.86-44.80L41.22-46.72L42.43-46.72L42.43-3.07L42.43-3.07Q42.43-2.37 42.72-2.11L42.72-2.11L42.72-2.11Q43.01-1.86 43.97-1.66L43.97-1.66L46.21-1.15L46.21 0L33.02 0ZM22.40-1.98L22.40-1.98Q26.18-1.98 29.63-5.57L29.63-5.57L29.63-26.75L29.63-26.75Q26.56-29.18 22.72-29.18L22.72-29.18L22.72-29.18Q19.20-29.18 17.79-26.08L17.79-26.08L17.79-26.08Q16.38-22.98 16.38-15.87L16.38-15.87L16.38-15.87Q16.38-10.82 16.93-7.84L16.93-7.84L16.93-7.84Q17.47-4.86 18.78-3.42L18.78-3.42L18.78-3.42Q20.10-1.98 22.40-1.98L22.40-1.98ZM64.13-16.38L64.13-16.38Q64.19-9.28 66.40-5.57L66.40-5.57L66.40-5.57Q68.61-1.86 74.69-1.86L74.69-1.86L74.69-1.86Q77.70-1.86 80.03-2.75L80.03-2.75L80.03-2.75Q82.37-3.65 84.86-5.31L84.86-5.31L85.70-4.10L85.70-4.10Q79.74 0.77 69.95 0.77L69.95 0.77L69.95 0.77Q61.12 0.77 56.03-3.49L56.03-3.49L56.03-3.49Q50.94-7.74 50.94-15.94L50.94-15.94L50.94-15.94Q50.94-23.68 56.13-27.78L56.13-27.78L56.13-27.78Q61.31-31.87 70.66-31.87L70.66-31.87L70.66-31.87Q75.97-31.87 79.62-30.21L79.62-30.21L79.62-30.21Q83.26-28.54 85.02-25.76L85.02-25.76L85.02-25.76Q86.78-22.98 86.78-19.58L86.78-19.58L86.78-19.58Q86.78-17.86 86.46-16.38L86.46-16.38L64.13-16.38ZM70.27-30.34L70.27-30.34Q66.75-30.34 65.47-27.39L65.47-27.39L65.47-27.39Q64.19-24.45 64.13-18.05L64.13-18.05L74.88-18.05L74.88-22.85L74.88-22.85Q74.88-26.75 73.95-28.54L73.95-28.54L73.95-28.54Q73.02-30.34 70.27-30.34L70.27-30.34ZM110.21-30.14L108.54-29.76L108.54-29.76Q107.07-29.44 107.07-28.54L107.07-28.54L107.07-28.54Q107.07-28.16 107.39-27.52L107.39-27.52L114.82-12.61L121.79-28.86L121.79-28.86Q121.98-29.25 121.98-29.50L121.98-29.50L121.98-29.50Q121.98-29.89 121.15-29.95L121.15-29.95L119.49-30.14L119.49-31.10L126.85-31.10L126.85-30.14L125.18-29.89L125.18-29.89Q124.42-29.76 124.10-29.57L124.10-29.57L124.10-29.57Q123.78-29.38 123.46-28.67L123.46-28.67L110.46 1.15L109.31 1.15L93.82-28.42L93.82-28.42Q93.50-28.99 93.09-29.25L93.09-29.25L93.09-29.25Q92.67-29.50 92.03-29.63L92.03-29.63L90.11-30.14L90.11-31.10L110.21-31.10L110.21-30.14ZM143.49-16.38L143.49-16.38Q143.55-9.28 145.76-5.57L145.76-5.57L145.76-5.57Q147.97-1.86 154.05-1.86L154.05-1.86L154.05-1.86Q157.06-1.86 159.39-2.75L159.39-2.75L159.39-2.75Q161.73-3.65 164.22-5.31L164.22-5.31L165.06-4.10L165.06-4.10Q159.10 0.77 149.31 0.77L149.31 0.77L149.31 0.77Q140.48 0.77 135.39-3.49L135.39-3.49L135.39-3.49Q130.30-7.74 130.30-15.94L130.30-15.94L130.30-15.94Q130.30-23.68 135.49-27.78L135.49-27.78L135.49-27.78Q140.67-31.87 150.02-31.87L150.02-31.87L150.02-31.87Q155.33-31.87 158.98-30.21L158.98-30.21L158.98-30.21Q162.62-28.54 164.38-25.76L164.38-25.76L164.38-25.76Q166.14-22.98 166.14-19.58L166.14-19.58L166.14-19.58Q166.14-17.86 165.82-16.38L165.82-16.38L143.49-16.38ZM149.63-30.34L149.63-30.34Q146.11-30.34 144.83-27.39L144.83-27.39L144.83-27.39Q143.55-24.45 143.49-18.05L143.49-18.05L154.24-18.05L154.24-22.85L154.24-22.85Q154.24-26.75 153.31-28.54L153.31-28.54L153.31-28.54Q152.38-30.34 149.63-30.34L149.63-30.34ZM170.75 0L170.75-1.15L172.99-1.66L172.99-1.66Q173.95-1.86 174.24-2.11L174.24-2.11L174.24-2.11Q174.53-2.37 174.53-3.07L174.53-3.07L174.53-41.73L174.53-41.73Q174.53-42.43 174.24-42.69L174.24-42.69L174.24-42.69Q173.95-42.94 172.99-43.14L172.99-43.14L170.75-43.65L170.75-44.80L186.11-46.72L187.33-46.72L187.33-3.07L187.33-3.07Q187.33-2.37 187.62-2.11L187.62-2.11L187.62-2.11Q187.90-1.86 188.86-1.66L188.86-1.66L191.10-1.15L191.10 0L170.75 0ZM235.78-15.55L235.78-15.55Q235.78-7.30 230.62-3.26L230.62-3.26L230.62-3.26Q225.47 0.77 215.81 0.77L215.81 0.77L215.81 0.77Q206.14 0.77 200.99-3.26L200.99-3.26L200.99-3.26Q195.84-7.30 195.84-15.55L195.84-15.55L195.84-15.55Q195.84-23.81 200.99-27.84L200.99-27.84L200.99-27.84Q206.14-31.87 215.81-31.87L215.81-31.87L215.81-31.87Q225.47-31.87 230.62-27.84L230.62-27.84L230.62-27.84Q235.78-23.81 235.78-15.55L235.78-15.55ZM209.15-15.55L209.15-15.55Q209.15-9.86 209.70-6.78L209.70-6.78L209.70-6.78Q210.24-3.71 211.65-2.30L211.65-2.30L211.65-2.30Q213.06-0.90 215.81-0.90L215.81-0.90L215.81-0.90Q218.56-0.90 219.97-2.30L219.97-2.30L219.97-2.30Q221.38-3.71 221.92-6.78L221.92-6.78L221.92-6.78Q222.46-9.86 222.46-15.55L222.46-15.55L222.46-15.55Q222.46-21.25 221.92-24.32L221.92-24.32L221.92-24.32Q221.38-27.39 219.97-28.80L219.97-28.80L219.97-28.80Q218.56-30.21 215.81-30.21L215.81-30.21L215.81-30.21Q213.06-30.21 211.65-28.80L211.65-28.80L211.65-28.80Q210.24-27.39 209.70-24.32L209.70-24.32L209.70-24.32Q209.15-21.25 209.15-15.55L209.15-15.55ZM240.51 14.46L240.51 13.31L242.75 12.80L242.75 12.80Q243.71 12.61 244 12.35L244 12.35L244 12.35Q244.29 12.10 244.29 11.39L244.29 11.39L244.29-27.26L244.29-27.26Q244.29-27.97 244-28.22L244-28.22L244-28.22Q243.71-28.48 242.75-28.67L242.75-28.67L240.51-29.18L240.51-30.34L255.87-32.26L256.96-32.26L256.96-28.54L256.96-28.54Q261.25-31.87 268.10-31.87L268.10-31.87L268.10-31.87Q275.20-31.87 279.36-28.03L279.36-28.03L279.36-28.03Q283.52-24.19 283.52-15.94L283.52-15.94L283.52-15.94Q283.52-7.42 279.36-3.39L279.36-3.39L279.36-3.39Q275.20 0.64 268.10 0.64L268.10 0.64L268.10 0.64Q260.99 0.64 257.09-3.52L257.09-3.52L257.09 11.39L257.09 11.39Q257.09 12.10 257.38 12.35L257.38 12.35L257.38 12.35Q257.66 12.61 258.62 12.80L258.62 12.80L260.86 13.31L260.86 14.46L240.51 14.46ZM264-29.18L264-29.18Q260.03-29.18 257.09-26.75L257.09-26.75L257.09-5.70L257.09-5.70Q258.56-4.10 260.42-3.10L260.42-3.10L260.42-3.10Q262.27-2.11 264.32-2.11L264.32-2.11L264.32-2.11Q266.62-2.11 267.94-3.52L267.94-3.52L267.94-3.52Q269.25-4.93 269.79-7.90L269.79-7.90L269.79-7.90Q270.34-10.88 270.34-15.94L270.34-15.94L270.34-15.94Q270.34-23.04 268.93-26.11L268.93-26.11L268.93-26.11Q267.52-29.18 264-29.18L264-29.18ZM304.70-27.78L304.70-27.78Q307.14-29.50 310.40-30.69L310.40-30.69L310.40-30.69Q313.66-31.87 317.57-31.87L317.57-31.87L317.57-31.87Q325.50-31.87 327.68-27.14L327.68-27.14L327.68-27.14Q330.11-29.12 333.60-30.50L333.60-30.50L333.60-30.50Q337.09-31.87 341.38-31.87L341.38-31.87L341.38-31.87Q347.33-31.87 349.89-29.38L349.89-29.38L349.89-29.38Q352.45-26.88 352.45-21.89L352.45-21.89L352.45-3.07L352.45-3.07Q352.45-2.37 352.74-2.11L352.74-2.11L352.74-2.11Q353.02-1.86 353.98-1.66L353.98-1.66L356.22-1.15L356.22 0L342.91 0L342.91 0Q341.18 0 340.42-0.90L340.42-0.90L340.42-0.90Q339.65-1.79 339.65-3.58L339.65-3.58L339.65-23.04L339.65-23.04Q339.65-25.92 338.72-27.14L338.72-27.14L338.72-27.14Q337.79-28.35 335.62-28.35L335.62-28.35L335.62-28.35Q332.16-28.35 328.26-25.54L328.26-25.54L328.26-25.54Q328.64-23.94 328.64-21.89L328.64-21.89L328.64-3.07L328.64-3.07Q328.64-2.37 328.93-2.11L328.93-2.11L328.93-2.11Q329.22-1.86 330.18-1.66L330.18-1.66L332.42-1.15L332.42 0L319.10 0L319.10 0Q317.38 0 316.61-0.90L316.61-0.90L316.61-0.90Q315.84-1.79 315.84-3.58L315.84-3.58L315.84-23.04L315.84-23.04Q315.84-25.92 314.91-27.14L314.91-27.14L314.91-27.14Q313.98-28.35 311.81-28.35L311.81-28.35L311.81-28.35Q308.42-28.35 304.83-25.79L304.83-25.79L304.83-3.07L304.83-3.07Q304.83-2.37 305.12-2.08L305.12-2.08L305.12-2.08Q305.41-1.79 306.30-1.60L306.30-1.60L308.48-1.15L308.48 0L288.26 0L288.26-1.15L290.50-1.66L290.50-1.66Q291.46-1.86 291.74-2.11L291.74-2.11L291.74-2.11Q292.03-2.37 292.03-3.07L292.03-3.07L292.03-27.26L292.03-27.26Q292.03-27.97 291.74-28.22L291.74-28.22L291.74-28.22Q291.46-28.48 290.50-28.67L290.50-28.67L288.26-29.18L288.26-30.34L303.62-32.26L304.70-32.26L304.70-27.78ZM374.02-16.38L374.02-16.38Q374.08-9.28 376.29-5.57L376.29-5.57L376.29-5.57Q378.50-1.86 384.58-1.86L384.58-1.86L384.58-1.86Q387.58-1.86 389.92-2.75L389.92-2.75L389.92-2.75Q392.26-3.65 394.75-5.31L394.75-5.31L395.58-4.10L395.58-4.10Q389.63 0.77 379.84 0.77L379.84 0.77L379.84 0.77Q371.01 0.77 365.92-3.49L365.92-3.49L365.92-3.49Q360.83-7.74 360.83-15.94L360.83-15.94L360.83-15.94Q360.83-23.68 366.02-27.78L366.02-27.78L366.02-27.78Q371.20-31.87 380.54-31.87L380.54-31.87L380.54-31.87Q385.86-31.87 389.50-30.21L389.50-30.21L389.50-30.21Q393.15-28.54 394.91-25.76L394.91-25.76L394.91-25.76Q396.67-22.98 396.67-19.58L396.67-19.58L396.67-19.58Q396.67-17.86 396.35-16.38L396.35-16.38L374.02-16.38ZM380.16-30.34L380.16-30.34Q376.64-30.34 375.36-27.39L375.36-27.39L375.36-27.39Q374.08-24.45 374.02-18.05L374.02-18.05L384.77-18.05L384.77-22.85L384.77-22.85Q384.77-26.75 383.84-28.54L383.84-28.54L383.84-28.54Q382.91-30.34 380.16-30.34L380.16-30.34ZM442.56-3.07L442.56-3.07Q442.56-2.37 442.85-2.11L442.85-2.11L442.85-2.11Q443.14-1.86 444.10-1.66L444.10-1.66L446.34-1.15L446.34 0L433.02 0L433.02 0Q431.30 0 430.53-0.90L430.53-0.90L430.53-0.90Q429.76-1.79 429.76-3.58L429.76-3.58L429.76-23.04L429.76-23.04Q429.76-25.92 428.83-27.14L428.83-27.14L428.83-27.14Q427.90-28.35 425.73-28.35L425.73-28.35L425.73-28.35Q421.89-28.35 417.86-25.15L417.86-25.15L417.86-3.07L417.86-3.07Q417.86-2.37 418.14-2.08L418.14-2.08L418.14-2.08Q418.43-1.79 419.33-1.60L419.33-1.60L421.50-1.15L421.50 0L401.28 0L401.28-1.15L403.52-1.66L403.52-1.66Q404.48-1.86 404.77-2.11L404.77-2.11L404.77-2.11Q405.06-2.37 405.06-3.07L405.06-3.07L405.06-27.26L405.06-27.26Q405.06-27.97 404.77-28.22L404.77-28.22L404.77-28.22Q404.48-28.48 403.52-28.67L403.52-28.67L401.28-29.18L401.28-30.34L416.64-32.26L417.73-32.26L417.73-27.07L417.73-27.07Q420.16-29.06 423.68-30.46L423.68-30.46L423.68-30.46Q427.20-31.87 431.49-31.87L431.49-31.87L431.49-31.87Q437.44-31.87 440.00-29.38L440.00-29.38L440.00-29.38Q442.56-26.88 442.56-21.89L442.56-21.89L442.56-3.07ZM453.31-29.44L449.15-29.44L449.15-31.10L449.15-31.10Q451.14-31.10 452.10-31.42L452.10-31.42L452.10-31.42Q453.06-31.74 454.02-32.58L454.02-32.58L465.41-42.82L465.98-42.82L465.98-31.10L474.24-31.10L474.24-29.44L465.98-29.44L465.98-7.94L465.98-7.94Q465.98-4.86 466.72-3.62L466.72-3.62L466.72-3.62Q467.46-2.37 469.25-2.37L469.25-2.37L469.25-2.37Q470.66-2.37 471.74-2.94L471.74-2.94L471.74-2.94Q472.83-3.52 474.11-4.93L474.11-4.93L475.14-3.71L475.14-3.71Q471.10 0.77 463.23 0.77L463.23 0.77L463.23 0.77Q457.92 0.77 455.62-1.47L455.62-1.47L455.62-1.47Q453.31-3.71 453.31-8.45L453.31-8.45L453.31-29.44ZM480.51-21.76L480.51-21.76Q480.51-31.87 484.90-38.69L484.90-38.69L484.90-38.69Q489.28-45.50 498.24-50.82L498.24-50.82L499.20-49.86L499.20-49.86Q495.17-47.17 493.02-43.55L493.02-43.55L493.02-43.55Q490.88-39.94 490.08-34.85L490.08-34.85L490.08-34.85Q489.28-29.76 489.28-21.76L489.28-21.76L489.28-21.76Q489.28-13.76 490.08-8.67L490.08-8.67L490.08-8.67Q490.88-3.58 493.02 0.03L493.02 0.03L493.02 0.03Q495.17 3.65 499.20 6.34L499.20 6.34L498.24 7.30L498.24 7.30Q489.28 1.98 484.90-4.83L484.90-4.83L484.90-4.83Q480.51-11.65 480.51-21.76L480.51-21.76ZM518.40-0.77L518.40-0.77Q521.41-0.77 522.85-1.66L522.85-1.66L522.85-1.66Q524.29-2.56 524.29-4.80L524.29-4.80L524.29-4.80Q524.29-6.34 523.52-7.30L523.52-7.30L523.52-7.30Q522.75-8.26 521.09-9.02L521.09-9.02L521.09-9.02Q519.42-9.79 515.78-11.14L515.78-11.14L515.78-11.14Q509.57-13.38 506.94-15.78L506.94-15.78L506.94-15.78Q504.32-18.18 504.32-22.40L504.32-22.40L504.32-22.40Q504.32-27.20 507.90-29.54L507.90-29.54L507.90-29.54Q511.49-31.87 518.78-31.87L518.78-31.87L518.78-31.87Q522.50-31.87 526.08-31.14L526.08-31.14L526.08-31.14Q529.66-30.40 531.65-29.44L531.65-29.44L530.88-21.76L529.79-21.76L529.79-21.76Q528.06-26.05 525.63-28.26L525.63-28.26L525.63-28.26Q523.20-30.46 518.59-30.46L518.59-30.46L518.59-30.46Q515.65-30.46 514.05-29.66L514.05-29.66L514.05-29.66Q512.45-28.86 512.45-26.75L512.45-26.75L512.45-26.75Q512.45-25.28 513.18-24.38L513.18-24.38L513.18-24.38Q513.92-23.49 515.49-22.72L515.49-22.72L515.49-22.72Q517.06-21.95 520.70-20.48L520.70-20.48L520.70-20.48Q525.95-18.37 528.64-16.83L528.64-16.83L528.64-16.83Q531.33-15.30 532.61-13.31L532.61-13.31L532.61-13.31Q533.89-11.33 533.89-8.32L533.89-8.32L533.89-8.32Q533.89-3.52 530.21-1.38L530.21-1.38L530.21-1.38Q526.53 0.77 519.17 0.77L519.17 0.77L519.17 0.77Q515.26 0.77 511.01 0.03L511.01 0.03L511.01 0.03Q506.75-0.70 504.64-1.66L504.64-1.66L505.54-10.37L506.62-10.37L506.62-10.37Q507.78-5.31 510.72-3.04L510.72-3.04L510.72-3.04Q513.66-0.77 518.40-0.77L518.40-0.77ZM557.57-21.76L557.57-21.76Q557.57-11.65 553.18-4.83L553.18-4.83L553.18-4.83Q548.80 1.98 539.84 7.30L539.84 7.30L538.88 6.34L538.88 6.34Q542.91 3.65 545.06 0.03L545.06 0.03L545.06 0.03Q547.20-3.58 548.00-8.67L548.00-8.67L548.00-8.67Q548.80-13.76 548.80-21.76L548.80-21.76L548.80-21.76Q548.80-29.76 548.00-34.85L548.00-34.85L548.00-34.85Q547.20-39.94 545.06-43.55L545.06-43.55L545.06-43.55Q542.91-47.17 538.88-49.86L538.88-49.86L539.84-50.82L539.84-50.82Q548.80-45.50 553.18-38.69L553.18-38.69L553.18-38.69Q557.57-31.87 557.57-21.76L557.57-21.76Z" fill="#ffffff"></path></g></g><style>text {
  font-size: 64px;
  font-family: Arial Black;
  dominant-baseline: central;
  text-anchor: middle;
}</style></svg>