<?xml version="1.0" standalone="no"?>
<!DOCTYPE svg PUBLIC "-//W3C//DTD SVG 20010904//EN"
 "http://www.w3.org/TR/2001/REC-SVG-20010904/DTD/svg10.dtd">
<svg version="1.0" xmlns="http://www.w3.org/2000/svg"
 width="50.000000pt" height="418.000000pt" viewBox="0 0 50.000000 418.000000"
 preserveAspectRatio="xMidYMid meet">

<g transform="translate(0.000000,418.000000) scale(0.100000,-0.100000)"
fill="white" stroke="white">
<path d="M33 4163 c15 -4 17 -23 17 -213 0 -190 -2 -209 -18 -213 -9 -3 30 -5
88 -5 72 -1 98 2 83 8 -22 9 -23 15 -23 109 l0 100 83 4 82 3 -82 2 -83 2 0
100 0 100 58 0 c74 0 102 -15 127 -67 11 -23 23 -42 28 -43 4 0 7 27 7 60 l0
60 -192 -1 c-106 -1 -185 -3 -175 -6z"/>
<path d="M33 3680 c15 -10 17 -32 17 -215 0 -153 -3 -205 -13 -208 -6 -3 31
-5 83 -5 52 0 87 2 78 5 -16 4 -18 18 -18 105 l0 101 41 -6 c48 -6 56 -16 65
-77 10 -68 32 -116 60 -129 49 -22 144 -9 144 21 0 6 -6 5 -16 -3 -14 -11 -18
-10 -30 6 -8 10 -14 26 -14 35 0 9 -7 40 -16 69 -15 51 -21 57 -79 76 -17 6
-14 9 19 20 52 18 67 35 73 83 7 52 -14 88 -65 109 -46 19 -359 32 -329 13z
m247 -30 c15 -15 20 -33 20 -75 0 -70 -29 -105 -85 -105 l-35 0 0 100 0 100
40 0 c27 0 47 -7 60 -20z"/>
<path d="M146 3185 c-96 -34 -136 -97 -136 -214 0 -131 53 -199 173 -221 116
-22 231 22 268 103 25 57 26 176 0 233 -43 95 -186 142 -305 99z m155 -21 c53
-48 52 -342 -2 -386 -12 -10 -37 -18 -56 -18 -81 0 -98 37 -98 215 0 142 10
179 55 202 29 16 76 9 101 -13z"/>
<path d="M38 2690 c22 -9 22 -11 22 -210 0 -199 0 -201 -22 -210 -18 -7 -13
-9 27 -9 40 0 45 2 28 9 -23 9 -23 12 -23 200 0 105 4 189 8 186 4 -2 78 -93
162 -200 85 -108 161 -196 168 -196 9 0 12 50 12 214 0 196 2 215 18 219 9 3
-5 5 -33 5 -39 1 -45 -1 -27 -8 21 -9 22 -14 22 -125 0 -63 -2 -115 -5 -115
-2 0 -50 56 -105 125 l-101 125 -87 -1 c-62 0 -81 -3 -64 -9z"/>
<path d="M10 2150 c0 -67 10 -77 28 -26 16 44 42 66 86 73 l36 6 0 -211 c0
-192 -2 -211 -17 -215 -10 -3 29 -5 87 -4 58 0 95 2 83 4 -23 4 -23 5 -23 215
l0 211 36 -6 c44 -7 60 -20 85 -69 11 -21 22 -38 24 -38 3 0 5 27 5 60 l0 60
-215 0 -215 0 0 -60z"/>
<path d="M192 1638 c-7 -7 -12 -25 -12 -40 0 -50 76 -60 94 -12 16 41 -51 83
-82 52z"/>
<path d="M38 1420 c22 -9 22 -11 22 -210 0 -199 0 -201 -22 -210 -15 -6 46 -9
175 -9 l197 -1 0 63 -1 62 -22 -45 c-28 -56 -54 -70 -139 -70 l-68 0 0 105 0
104 88 4 87 3 -87 2 -88 2 0 100 0 100 63 0 c79 0 107 -15 132 -67 11 -23 23
-42 28 -43 4 0 7 27 7 60 l0 60 -197 -1 c-129 0 -190 -3 -175 -9z"/>
<path d="M38 930 c22 -9 22 -11 22 -210 0 -199 0 -201 -22 -210 -18 -7 -13 -9
27 -9 40 0 45 2 28 9 -23 9 -23 12 -23 200 0 105 4 189 8 186 4 -2 78 -93 162
-200 85 -108 161 -196 168 -196 9 0 12 50 12 214 0 196 2 215 18 219 9 3 -5 5
-33 5 -39 1 -45 -1 -27 -8 21 -9 22 -14 22 -125 0 -63 -2 -115 -5 -115 -2 0
-50 56 -105 125 l-101 125 -87 -1 c-62 0 -81 -3 -64 -9z"/>
<path d="M28 440 c22 -9 22 -11 22 -214 0 -204 0 -205 -22 -209 -13 -2 38 -5
112 -5 151 -2 208 8 261 43 52 34 73 84 73 175 0 105 -24 149 -101 187 -55 27
-66 28 -213 30 -106 2 -148 0 -132 -7z m269 -32 c32 -30 43 -77 43 -185 0
-101 -16 -160 -50 -181 -11 -7 -41 -15 -65 -19 l-45 -6 0 213 0 213 47 -7 c27
-3 57 -15 70 -28z"/>
</g>
</svg>
