<svg xmlns="http://www.w3.org/2000/svg" version="1.0" preserveAspectRatio="xMidYMid meet" viewBox="-0.5 0.1 505 70.9">

<g transform="translate(0.000000,72.000000) scale(0.100000,-0.100000)" fill="white" stroke="white">
<path d="M83 705 c-55 -24 -62 -60 -37 -207 6 -34 4 -38 -22 -49 l-29 -12 25 -6 c28 -8 29 -20 15 -141 -7 -61 -6 -68 17 -94 18 -22 34 -29 68 -31 25 -1 35 -1 23 2 -41 8 -46 26 -29 109 22 103 21 130 -6 148 l-21 15 24 20 24 19 -18 103 c-9 56 -15 105 -11 108 3 3 20 11 37 18 l32 11 -30 1 c-16 0 -44 -6 -62 -14z"/>
<path d="M4897 708 c17 -7 35 -16 38 -20 4 -3 -1 -52 -11 -109 l-18 -102 30 -23 c22 -18 25 -24 11 -24 -34 0 -41 -40 -22 -144 10 -53 15 -99 12 -103 -3 -3 -21 -9 -39 -13 l-33 -8 31 -1 c90 -3 121 36 109 136 -14 118 -13 126 15 134 l25 6 -29 12 c-25 10 -28 15 -22 44 3 17 8 61 12 97 6 60 4 68 -17 93 -18 21 -36 28 -74 32 -48 5 -49 5 -18 -7z"/>
<path d="M428 658 c22 -11 22 -14 22 -211 0 -179 -2 -201 -17 -213 -15 -11 -3 -13 82 -13 94 0 99 1 78 16 -21 14 -23 23 -23 109 l0 94 80 0 c47 0 80 4 80 10 0 6 -33 10 -80 10 l-80 0 0 95 0 95 71 0 c65 0 73 -2 100 -29 16 -16 29 -36 29 -45 0 -8 5 -18 10 -21 6 -4 10 17 10 54 l0 61 -192 -1 c-146 0 -188 -3 -170 -11z"/>
<path d="M858 659 c22 -12 22 -15 22 -212 0 -179 -2 -201 -17 -213 -15 -11 -2 -13 87 -13 83 0 101 2 85 11 -31 18 -35 28 -35 108 0 94 7 105 54 96 42 -8 49 -20 67 -110 15 -81 41 -106 112 -106 42 0 58 5 73 21 19 22 19 22 -4 8 -29 -18 -36 -8 -52 74 -12 64 -44 107 -80 107 -11 0 -20 5 -20 10 0 6 9 10 20 10 11 0 34 13 52 29 26 23 33 37 33 68 0 53 -26 89 -72 103 -55 16 -355 24 -325 9z m243 -28 c21 -16 24 -28 24 -81 0 -53 -3 -64 -24 -81 -17 -14 -36 -19 -60 -17 l-36 3 -3 84 c-2 46 -1 90 2 98 8 20 70 16 97 -6z"/>
<path d="M1503 659 c-47 -14 -109 -77 -122 -124 -27 -99 -7 -202 49 -256 49 -46 109 -63 206 -57 62 4 82 10 117 34 51 36 77 86 84 163 10 113 -33 200 -119 235 -41 18 -162 20 -215 5z m154 -14 c32 -22 43 -75 43 -200 0 -165 -22 -215 -93 -215 -77 0 -97 44 -97 215 0 171 19 214 95 215 17 0 40 -7 52 -15z"/>
<path d="M1918 654 c21 -15 22 -20 22 -210 0 -164 -2 -196 -15 -200 -29 -12 -14 -24 28 -23 37 0 40 2 20 11 -23 11 -23 14 -23 200 0 110 4 188 9 186 5 -1 78 -90 163 -197 84 -107 158 -195 163 -195 6 -1 11 77 13 208 2 184 4 211 20 222 15 12 10 13 -33 13 -43 0 -47 -2 -27 -11 21 -11 22 -17 22 -130 0 -65 -2 -118 -4 -118 -2 0 -49 58 -105 130 l-102 130 -87 0 c-81 0 -85 -1 -64 -16z"/>
<path d="M2374 656 c-3 -7 -4 -38 -2 -67 l4 -54 17 37 c24 53 55 78 94 78 l33 0 0 -201 c0 -180 -2 -203 -17 -215 -15 -11 -3 -13 82 -13 85 0 97 2 83 13 -16 12 -18 35 -18 215 l0 201 31 0 c45 0 69 -17 90 -66 11 -24 22 -44 24 -44 3 0 5 29 5 65 l0 65 -210 0 c-169 0 -212 -3 -216 -14z"/>
<path d="M3038 658 c22 -11 22 -14 22 -211 0 -179 -2 -201 -17 -213 -15 -11 13 -13 180 -14 l197 0 0 65 c0 36 -2 65 -5 65 -2 0 -13 -20 -24 -44 -24 -56 -44 -66 -130 -66 l-71 0 0 100 0 100 80 0 c47 0 80 4 80 10 0 6 -33 10 -80 10 l-80 0 0 95 0 95 71 0 c65 0 73 -2 100 -29 16 -16 29 -36 29 -45 0 -8 5 -18 10 -21 6 -4 10 17 10 54 l0 61 -197 -1 c-150 0 -193 -3 -175 -11z"/>
<path d="M3498 658 c22 -11 22 -14 22 -211 0 -179 -2 -201 -17 -213 -16 -12 -13 -13 27 -13 40 0 43 1 28 13 -16 12 -18 34 -18 201 0 153 2 185 13 177 7 -6 78 -94 158 -196 79 -102 150 -187 157 -190 9 -4 12 41 12 208 0 211 0 213 23 224 19 9 15 11 -28 11 -43 0 -47 -2 -27 -11 21 -11 22 -17 22 -131 0 -99 -2 -118 -14 -108 -7 6 -55 65 -107 131 l-94 120 -90 -1 c-72 0 -86 -3 -67 -11z"/>
<path d="M3978 659 c22 -12 22 -15 22 -212 0 -179 -2 -201 -17 -213 -15 -11 -4 -13 77 -13 185 -1 286 27 330 89 43 60 42 211 -1 271 -12 18 -46 42 -77 56 -48 23 -70 26 -205 29 -120 3 -147 2 -129 -7z m251 -24 c43 -22 56 -65 56 -190 0 -161 -27 -205 -125 -205 l-40 0 0 205 0 205 40 0 c23 0 54 -7 69 -15z"/>
<path d="M4527 522 c-46 -51 19 -115 67 -66 21 21 20 40 -4 64 -25 25 -42 25 -63 2z"/>
<path d="M4526 307 c-27 -20 -18 -70 14 -77 28 -7 29 -29 4 -67 -21 -34 -17 -39 10 -14 53 49 71 125 38 154 -22 20 -42 21 -66 4z"/>
<path d="M2228 188 c17 -17 16 -165 0 -171 -7 -3 15 -6 50 -6 37 -1 75 5 91 14 64 32 60 134 -5 161 -43 18 -154 20 -136 2z m121 -13 c32 -16 41 -33 41 -79 0 -46 -19 -66 -69 -73 -54 -7 -61 2 -61 83 0 83 25 103 89 69z"/>
<path d="M2454 184 c20 -19 22 -144 4 -162 -9 -9 3 -12 54 -12 50 0 67 4 72 15 4 13 2 13 -14 5 -10 -5 -32 -10 -49 -10 -30 0 -31 2 -31 41 0 41 0 41 35 37 23 -3 35 0 35 8 0 9 -11 11 -35 7 -35 -6 -35 -5 -35 31 0 43 16 53 60 38 24 -9 30 -8 30 4 0 11 -16 14 -71 14 -64 0 -69 -1 -55 -16z"/>
<path d="M2607 192 c6 -4 30 -46 54 -95 23 -48 45 -87 49 -87 4 0 11 11 14 25 10 39 64 148 79 157 7 5 -2 8 -23 8 -25 0 -31 -3 -20 -10 12 -7 10 -18 -15 -69 -16 -34 -32 -61 -35 -61 -4 0 -18 28 -32 63 -18 44 -23 64 -14 69 6 4 -7 8 -29 8 -22 0 -35 -4 -28 -8z"/>
<path d="M2838 188 c17 -17 16 -165 0 -172 -7 -3 18 -4 56 -3 48 1 71 6 74 15 3 11 0 12 -17 2 -12 -6 -34 -10 -49 -8 -24 3 -27 7 -27 38 0 33 2 35 33 35 17 0 32 4 32 10 0 6 -15 10 -32 10 -31 0 -33 2 -33 35 0 29 4 36 23 38 13 2 34 -3 47 -12 21 -14 23 -14 18 4 -5 17 -14 20 -71 20 -51 0 -63 -3 -54 -12z"/>
<path d="M3014 184 c20 -19 22 -144 4 -162 -9 -9 3 -12 55 -12 54 0 67 3 67 15 0 12 -4 13 -19 5 -11 -5 -31 -10 -45 -10 -26 0 -26 0 -26 84 0 58 4 86 13 89 6 3 -5 6 -26 6 -35 1 -37 0 -23 -15z"/>
<path d="M3213 180 c-38 -23 -52 -74 -33 -119 22 -54 107 -69 154 -26 21 19 26 33 26 69 0 37 -5 48 -31 70 -36 31 -73 33 -116 6z m100 -19 c10 -10 21 -36 24 -58 10 -78 -61 -110 -118 -54 -37 38 -39 82 -3 117 28 29 64 27 97 -5z"/>
<path d="M3408 191 c10 -6 13 -31 10 -95 l-3 -86 30 1 c17 0 24 3 18 6 -7 2 -13 19 -13 36 0 30 2 32 36 33 40 1 64 23 64 60 0 39 -26 54 -93 54 -38 0 -57 -4 -49 -9z m102 -21 c25 -25 25 -35 1 -59 -31 -31 -61 -17 -61 28 0 56 23 68 60 31z"/>
<path d="M3584 184 c20 -20 23 -160 4 -167 -7 -3 1 -6 17 -6 20 0 25 2 17 8 -9 5 -12 26 -10 67 l3 59 34 -53 c18 -29 36 -50 39 -47 3 3 20 31 38 63 l33 57 1 -72 c0 -48 -4 -73 -12 -76 -7 -3 5 -6 27 -6 32 0 36 2 23 10 -26 15 -26 153 0 168 14 9 13 10 -10 11 -24 0 -32 -8 -58 -60 -17 -33 -34 -60 -38 -60 -4 0 -24 27 -46 60 -25 40 -45 60 -58 60 -18 0 -18 -1 -4 -16z"/>
<path d="M3848 193 c8 -3 12 -31 12 -88 0 -57 -4 -85 -12 -88 -7 -3 19 -6 58 -6 63 -1 72 1 77 19 5 18 3 18 -18 4 -13 -9 -36 -14 -52 -12 -25 3 -28 7 -28 38 0 33 2 35 33 35 17 0 32 4 32 10 0 6 -15 10 -32 10 -30 0 -33 3 -33 29 0 42 27 56 66 33 27 -15 31 -15 25 -1 -3 8 -6 18 -6 20 0 2 -30 4 -67 3 -38 0 -62 -3 -55 -6z"/>
<path d="M4020 186 c7 -10 10 -43 8 -95 -3 -81 -3 -81 22 -81 22 1 23 2 8 11 -14 8 -18 23 -18 64 0 30 4 55 8 55 5 0 37 -29 71 -65 35 -36 63 -65 64 -65 1 0 1 35 -1 79 -3 62 0 81 13 95 15 15 14 16 -17 15 -18 0 -27 -3 -20 -6 8 -3 12 -27 12 -71 l-1 -67 -67 73 c-37 40 -73 72 -81 72 -11 0 -11 -3 -1 -14z"/>
<path d="M4226 184 c-9 -24 -7 -29 6 -16 7 7 25 12 40 12 l28 0 0 -73 c0 -43 -5 -78 -12 -85 -9 -9 -3 -12 28 -11 21 1 31 3 22 6 -15 4 -18 17 -18 85 l0 81 35 -6 c26 -4 35 -2 35 9 0 22 -155 20 -164 -2z"/>
</g>
</svg>