<svg xmlns="http://www.w3.org/2000/svg" style="background: rgba(89, 104, 134, 0);" preserveAspectRatio="xMidYMid" viewBox="-1.91 54.75 503.81 59.59"><defs><filter id="editing-hover" x="-100%" y="-100%" width="300%" height="300%"><feFlood flood-color="rgba(100%,100%,100%,0)" result="flood"/><feComposite operator="in" in2="SourceAlpha" in="flood" result="shadow"/><feOffset dx="0.2" dy="0.1" in="SourceGraphic" result="offset-1"/><feOffset dx="-0.2" dy="-0.1" in="shadow" result="offset-2"/><feMerge><feMergeNode in="offset-2"/><feMergeNode in="offset-1"/></feMerge></filter></defs><g filter="url(#editing-hover)"><g transform="translate(-5.87501072883606, 104.79500389099121)"><path d="M3.97-22.59L6.85-23.04L6.85-23.04Q7.87-23.17 8.26-23.74L8.26-23.74L8.26-23.74Q8.64-24.32 8.64-25.28L8.64-25.28L8.64-25.28Q8.64-26.18 8.45-27.20L8.45-27.20L8.45-27.20Q8.32-28.03 8.13-28.99L8.13-28.99L8.13-28.99Q7.94-29.95 7.74-31.04L7.74-31.04L7.74-31.04Q7.10-34.56 6.82-36.54L6.82-36.54L6.82-36.54Q6.53-38.53 6.53-40.32L6.53-40.32L6.53-40.32Q6.53-44.54 8.90-47.07L8.90-47.07L8.90-47.07Q11.26-49.60 16.90-49.86L16.90-49.86L21.12-50.05L21.12-48.26L17.09-48L17.09-48Q15.49-47.94 14.88-47.30L14.88-47.30L14.88-47.30Q14.27-46.66 14.27-45.50L14.27-45.50L14.27-45.50Q14.27-44.48 15.23-39.94L15.23-39.94L15.23-39.94Q16.06-36.03 16.58-33.02L16.58-33.02L16.58-33.02Q17.09-30.02 17.09-27.39L17.09-27.39L17.09-27.39Q17.09-24.90 15.87-23.52L15.87-23.52L15.87-23.52Q14.66-22.14 11.07-21.76L11.07-21.76L11.07-21.76Q14.66-21.38 15.87-20L15.87-20L15.87-20Q17.09-18.62 17.09-16.13L17.09-16.13L17.09-16.13Q17.09-13.50 16.58-10.50L16.58-10.50L16.58-10.50Q16.06-7.49 15.23-3.58L15.23-3.58L15.23-3.58Q14.27 0.96 14.27 1.98L14.27 1.98L14.27 1.98Q14.27 3.14 14.88 3.78L14.88 3.78L14.88 3.78Q15.49 4.42 17.09 4.48L17.09 4.48L21.12 4.74L21.12 6.53L16.90 6.34L16.90 6.34Q11.26 6.08 8.90 3.55L8.90 3.55L8.90 3.55Q6.53 1.02 6.53-3.20L6.53-3.20L6.53-3.20Q6.53-4.99 6.82-6.98L6.82-6.98L6.82-6.98Q7.10-8.96 7.74-12.48L7.74-12.48L7.74-12.48Q7.94-13.57 8.13-14.53L8.13-14.53L8.13-14.53Q8.32-15.49 8.45-16.32L8.45-16.32L8.45-16.32Q8.64-17.41 8.64-18.24L8.64-18.24L8.64-18.24Q8.64-19.20 8.26-19.78L8.26-19.78L8.26-19.78Q7.87-20.35 6.85-20.48L6.85-20.48L3.97-20.93L3.97-22.59ZM83.20-32.32L81.60-32.32L81.60-32.32Q80.26-36.48 79.07-38.59L79.07-38.59L79.07-38.59Q77.89-40.70 75.78-41.79L75.78-41.79L75.78-41.79Q73.66-42.88 69.82-42.88L69.82-42.88L61.50-42.88L61.50-23.87L77.50-23.87L77.50-21.95L61.50-21.95L61.50-3.26L61.50-3.26Q61.50-2.56 61.79-2.30L61.79-2.30L61.79-2.30Q62.08-2.05 63.04-1.86L63.04-1.86L65.79-1.28L65.79 0L44.54 0L44.54-1.28L46.91-1.79L46.91-1.79Q47.87-1.98 48.16-2.24L48.16-2.24L48.16-2.24Q48.45-2.50 48.45-3.20L48.45-3.20L48.45-41.60L48.45-41.60Q48.45-42.30 48.16-42.56L48.16-42.56L48.16-42.56Q47.87-42.82 46.91-43.01L46.91-43.01L44.54-43.52L44.54-44.80L83.20-44.80L83.20-32.32ZM114.69-14.78L114.69-14.78Q114.18-17.92 113.50-19.17L113.50-19.17L113.50-19.17Q112.83-20.42 111.36-20.83L111.36-20.83L111.36-20.83Q109.89-21.25 106.50-21.25L106.50-21.25L104.64-21.25L104.64-3.26L104.64-3.26Q104.64-2.56 104.93-2.30L104.93-2.30L104.93-2.30Q105.22-2.05 106.18-1.86L106.18-1.86L108.93-1.28L108.93 0L87.68 0L87.68-1.28L90.05-1.79L90.05-1.79Q91.01-1.98 91.30-2.24L91.30-2.24L91.30-2.24Q91.58-2.50 91.58-3.20L91.58-3.20L91.58-41.60L91.58-41.60Q91.58-42.30 91.30-42.56L91.30-42.56L91.30-42.56Q91.01-42.82 90.05-43.01L90.05-43.01L87.68-43.52L87.68-44.80L106.50-44.80L106.50-44.80Q115.07-44.80 120.13-43.68L120.13-43.68L120.13-43.68Q125.18-42.56 127.49-40L127.49-40L127.49-40Q129.79-37.44 129.79-33.02L129.79-33.02L129.79-33.02Q129.79-28.10 126.85-25.44L126.85-25.44L126.85-25.44Q123.90-22.78 117.31-21.82L117.31-21.82L117.31-21.82Q121.09-21.57 123.36-20.61L123.36-20.61L123.36-20.61Q125.63-19.65 126.91-17.57L126.91-17.57L126.91-17.57Q128.19-15.49 128.90-11.84L128.90-11.84L129.60-8L129.60-8Q130.11-5.25 130.34-4.29L130.34-4.29L130.34-4.29Q130.56-3.33 130.98-2.82L130.98-2.82L130.98-2.82Q131.39-2.30 132.29-2.30L132.29-2.30L132.29-2.30Q133.89-2.30 134.98-4.67L134.98-4.67L136.32-3.52L136.32-3.52Q135.42-1.66 133.60-0.51L133.60-0.51L133.60-0.51Q131.78 0.64 127.68 0.64L127.68 0.64L127.68 0.64Q123.58 0.64 121.22-0.26L121.22-0.26L121.22-0.26Q118.85-1.15 117.50-3.42L117.50-3.42L117.50-3.42Q116.16-5.70 115.46-9.98L115.46-9.98L114.69-14.78ZM104.64-42.88L104.64-23.17L107.07-23.17L107.07-23.17Q110.78-23.17 112.80-24.19L112.80-24.19L112.80-24.19Q114.82-25.22 115.58-27.33L115.58-27.33L115.58-27.33Q116.35-29.44 116.35-33.02L116.35-33.02L116.35-33.02Q116.35-36.61 115.58-38.72L115.58-38.72L115.58-38.72Q114.82-40.83 112.80-41.86L112.80-41.86L112.80-41.86Q110.78-42.88 107.07-42.88L107.07-42.88L104.64-42.88ZM164.29-45.57L164.29-45.57Q175.10-45.57 181.57-40.10L181.57-40.10L181.57-40.10Q188.03-34.62 188.03-22.40L188.03-22.40L188.03-22.40Q188.03-10.18 181.57-4.70L181.57-4.70L181.57-4.70Q175.10 0.77 164.29 0.77L164.29 0.77L164.29 0.77Q153.47 0.77 147.01-4.70L147.01-4.70L147.01-4.70Q140.54-10.18 140.54-22.40L140.54-22.40L140.54-22.40Q140.54-34.56 147.04-40.06L147.04-40.06L147.04-40.06Q153.54-45.57 164.29-45.57L164.29-45.57ZM164.29-1.09L164.29-1.09Q168.19-1.09 170.27-3.20L170.27-3.20L170.27-3.20Q172.35-5.31 173.12-9.86L173.12-9.86L173.12-9.86Q173.89-14.40 173.89-22.40L173.89-22.40L173.89-22.40Q173.89-30.40 173.12-34.94L173.12-34.94L173.12-34.94Q172.35-39.49 170.27-41.60L170.27-41.60L170.27-41.60Q168.19-43.71 164.29-43.71L164.29-43.71L164.29-43.71Q160.38-43.71 158.30-41.60L158.30-41.60L158.30-41.60Q156.22-39.49 155.46-34.94L155.46-34.94L155.46-34.94Q154.69-30.40 154.69-22.40L154.69-22.40L154.69-22.40Q154.69-14.40 155.46-9.86L155.46-9.86L155.46-9.86Q156.22-5.31 158.30-3.20L158.30-3.20L158.30-3.20Q160.38-1.09 164.29-1.09L164.29-1.09ZM197.18-41.60L197.18-41.60Q197.18-42.30 196.90-42.56L196.90-42.56L196.90-42.56Q196.61-42.82 195.65-43.01L195.65-43.01L193.28-43.52L193.28-44.80L211.01-44.80L231.62-18.82L231.62-41.66L231.62-41.66Q231.62-42.37 231.33-42.59L231.33-42.59L231.33-42.59Q231.04-42.82 230.14-43.01L230.14-43.01L227.84-43.52L227.84-44.80L237.57-44.80L237.57-43.52L235.20-43.01L235.20-43.01Q234.24-42.82 233.95-42.56L233.95-42.56L233.95-42.56Q233.66-42.30 233.66-41.60L233.66-41.60L233.66 0L231.36 0L199.23-40.64L199.23-3.14L199.23-3.14Q199.23-2.43 199.52-2.21L199.52-2.21L199.52-2.21Q199.81-1.98 200.70-1.79L200.70-1.79L203.01-1.28L203.01 0L193.28 0L193.28-1.28L195.65-1.79L195.65-1.79Q196.61-1.98 196.90-2.24L196.90-2.24L196.90-2.24Q197.18-2.50 197.18-3.20L197.18-3.20L197.18-41.60ZM268.93-3.20L268.93-3.20Q268.93-2.50 269.22-2.24L269.22-2.24L269.22-2.24Q269.50-1.98 270.46-1.79L270.46-1.79L272.83-1.28L272.83 0L251.97 0L251.97-1.28L254.34-1.79L254.34-1.79Q255.30-1.98 255.58-2.24L255.58-2.24L255.58-2.24Q255.87-2.50 255.87-3.20L255.87-3.20L255.87-43.01L254.40-43.01L254.40-43.01Q250.50-43.01 248.35-41.73L248.35-41.73L248.35-41.73Q246.21-40.45 245.09-38.40L245.09-38.40L245.09-38.40Q243.97-36.35 242.30-31.87L242.30-31.87L240.90-31.87L240.90-44.80L283.90-44.80L283.90-31.87L282.50-31.87L282.50-31.87Q280.83-36.35 279.71-38.40L279.71-38.40L279.71-38.40Q278.59-40.45 276.45-41.73L276.45-41.73L276.45-41.73Q274.30-43.01 270.40-43.01L270.40-43.01L268.93-43.01L268.93-3.20ZM305.79-1.28L308.16-1.79L308.16-1.79Q309.12-1.98 309.41-2.24L309.41-2.24L309.41-2.24Q309.70-2.50 309.70-3.20L309.70-3.20L309.70-41.60L309.70-41.60Q309.70-42.30 309.41-42.56L309.41-42.56L309.41-42.56Q309.12-42.82 308.16-43.01L308.16-43.01L305.79-43.52L305.79-44.80L345.22-44.80L345.22-32.32L343.62-32.32L343.62-32.32Q342.27-36.48 341.09-38.59L341.09-38.59L341.09-38.59Q339.90-40.70 337.79-41.79L337.79-41.79L337.79-41.79Q335.68-42.88 331.84-42.88L331.84-42.88L322.75-42.88L322.75-23.87L339.26-23.87L339.26-21.95L322.75-21.95L322.75-1.92L332.48-1.92L332.48-1.92Q336.26-1.92 338.43-3.07L338.43-3.07L338.43-3.07Q340.61-4.22 341.86-6.40L341.86-6.40L341.86-6.40Q343.10-8.58 344.45-12.74L344.45-12.74L346.11-12.74L346.11 0L305.79 0L305.79-1.28ZM355.78-41.60L355.78-41.60Q355.78-42.30 355.49-42.56L355.49-42.56L355.49-42.56Q355.20-42.82 354.24-43.01L354.24-43.01L351.87-43.52L351.87-44.80L369.60-44.80L390.21-18.82L390.21-41.66L390.21-41.66Q390.21-42.37 389.92-42.59L389.92-42.59L389.92-42.59Q389.63-42.82 388.74-43.01L388.74-43.01L386.43-43.52L386.43-44.80L396.16-44.80L396.16-43.52L393.79-43.01L393.79-43.01Q392.83-42.82 392.54-42.56L392.54-42.56L392.54-42.56Q392.26-42.30 392.26-41.60L392.26-41.60L392.26 0L389.95 0L357.82-40.64L357.82-3.14L357.82-3.14Q357.82-2.43 358.11-2.21L358.11-2.21L358.11-2.21Q358.40-1.98 359.30-1.79L359.30-1.79L361.60-1.28L361.60 0L351.87 0L351.87-1.28L354.24-1.79L354.24-1.79Q355.20-1.98 355.49-2.24L355.49-2.24L355.49-2.24Q355.78-2.50 355.78-3.20L355.78-3.20L355.78-41.60ZM399.49-1.28L401.86-1.79L401.86-1.79Q402.82-1.98 403.10-2.24L403.10-2.24L403.10-2.24Q403.39-2.50 403.39-3.20L403.39-3.20L403.39-41.60L403.39-41.60Q403.39-42.30 403.10-42.56L403.10-42.56L403.10-42.56Q402.82-42.82 401.86-43.01L401.86-43.01L399.49-43.52L399.49-44.80L419.07-44.80L419.07-44.80Q432.51-44.80 439.55-39.74L439.55-39.74L439.55-39.74Q446.59-34.69 446.59-22.40L446.59-22.40L446.59-22.40Q446.59-10.11 439.55-5.06L439.55-5.06L439.55-5.06Q432.51 0 419.07 0L419.07 0L399.49 0L399.49-1.28ZM416.45-42.88L416.45-1.92L419.07-1.92L419.07-1.92Q424.38-1.92 427.26-3.81L427.26-3.81L427.26-3.81Q430.14-5.70 431.30-10.05L431.30-10.05L431.30-10.05Q432.45-14.40 432.45-22.40L432.45-22.40L432.45-22.40Q432.45-30.40 431.30-34.75L431.30-34.75L431.30-34.75Q430.14-39.10 427.26-40.99L427.26-40.99L427.26-40.99Q424.38-42.88 419.07-42.88L419.07-42.88L416.45-42.88ZM459.52-21.38L459.52-21.38Q457.28-21.38 455.71-22.91L455.71-22.91L455.71-22.91Q454.14-24.45 454.14-26.62L454.14-26.62L454.14-26.62Q454.14-28.80 455.71-30.34L455.71-30.34L455.71-30.34Q457.28-31.87 459.52-31.87L459.52-31.87L459.52-31.87Q461.76-31.87 463.33-30.34L463.33-30.34L463.33-30.34Q464.90-28.80 464.90-26.62L464.90-26.62L464.90-26.62Q464.90-24.45 463.33-22.91L463.33-22.91L463.33-22.91Q461.76-21.38 459.52-21.38L459.52-21.38ZM460.16-0.13L460.16-0.13Q459.71-0.06 458.94-0.06L458.94-0.06L458.94-0.06Q456.51-0.06 455.26-1.44L455.26-1.44L455.26-1.44Q454.02-2.82 454.02-4.86L454.02-4.86L454.02-4.86Q454.02-7.04 455.46-8.51L455.46-8.51L455.46-8.51Q456.90-9.98 459.39-9.98L459.39-9.98L459.39-9.98Q461.95-9.98 463.49-8.54L463.49-8.54L463.49-8.54Q465.02-7.10 465.02-4.35L465.02-4.35L465.02-4.35Q465.02-0.64 462.78 3.17L462.78 3.17L462.78 3.17Q460.54 6.98 457.28 9.54L457.28 9.54L456.00 8.19L456.00 8.19Q460.16 3.78 460.16-0.13L460.16-0.13ZM507.78-20.93L504.90-20.48L504.90-20.48Q503.87-20.35 503.49-19.78L503.49-19.78L503.49-19.78Q503.10-19.20 503.10-18.24L503.10-18.24L503.10-18.24Q503.10-17.41 503.30-16.32L503.30-16.32L503.30-16.32Q503.42-15.49 503.62-14.53L503.62-14.53L503.62-14.53Q503.81-13.57 504.00-12.48L504.00-12.48L504.00-12.48Q504.64-8.96 504.93-6.98L504.93-6.98L504.93-6.98Q505.22-4.99 505.22-3.20L505.22-3.20L505.22-3.20Q505.22 1.02 502.85 3.55L502.85 3.55L502.85 3.55Q500.48 6.08 494.85 6.34L494.85 6.34L490.62 6.53L490.62 4.74L494.66 4.48L494.66 4.48Q496.26 4.42 496.86 3.78L496.86 3.78L496.86 3.78Q497.47 3.14 497.47 1.98L497.47 1.98L497.47 1.98Q497.47 0.96 496.51-3.58L496.51-3.58L496.51-3.58Q495.68-7.49 495.17-10.50L495.17-10.50L495.17-10.50Q494.66-13.50 494.66-16.13L494.66-16.13L494.66-16.13Q494.66-18.62 495.87-20L495.87-20L495.87-20Q497.09-21.38 500.67-21.76L500.67-21.76L500.67-21.76Q497.09-22.14 495.87-23.52L495.87-23.52L495.87-23.52Q494.66-24.90 494.66-27.39L494.66-27.39L494.66-27.39Q494.66-30.02 495.17-33.02L495.17-33.02L495.17-33.02Q495.68-36.03 496.51-39.94L496.51-39.94L496.51-39.94Q497.47-44.48 497.47-45.50L497.47-45.50L497.47-45.50Q497.47-46.66 496.86-47.30L496.86-47.30L496.86-47.30Q496.26-47.94 494.66-48L494.66-48L490.62-48.26L490.62-50.05L494.85-49.86L494.85-49.86Q500.48-49.60 502.85-47.07L502.85-47.07L502.85-47.07Q505.22-44.54 505.22-40.32L505.22-40.32L505.22-40.32Q505.22-38.53 504.93-36.54L504.93-36.54L504.93-36.54Q504.64-34.56 504.00-31.04L504.00-31.04L504.00-31.04Q503.81-29.95 503.62-28.99L503.62-28.99L503.62-28.99Q503.42-28.03 503.30-27.20L503.30-27.20L503.30-27.20Q503.10-26.18 503.10-25.28L503.10-25.28L503.10-25.28Q503.10-24.32 503.49-23.74L503.49-23.74L503.49-23.74Q503.87-23.17 504.90-23.04L504.90-23.04L507.78-22.59L507.78-20.93Z" fill="#ffffff"/></g></g><style>text {
  font-size: 64px;
  font-family: Arial Black;
  dominant-baseline: central;
  text-anchor: middle;
}</style></svg>