<svg width="0" height="0" class="hidden">
  <symbol version="1.0" xmlns="http://www.w3.org/2000/svg" preserveAspectRatio="xMidYMid meet" viewBox="0 0 120.000000 120.000000" id="GitHub-Mark-120px-plus">
    <g transform="translate(0.000000,120.000000) scale(0.100000,-0.100000)" fill="#f1502f" stroke="none">
      <path d="M452 1170 c-109 -29 -187 -74 -272 -160 -87 -86 -131 -163 -160 -276
-36 -141 -18 -294 52 -427 48 -92 164 -205 259 -251 103 -51 113 -48 117 35
l3 66 -59 0 c-75 0 -116 23 -147 84 -13 26 -38 58 -55 73 -36 29 -31 51 9 41
32 -8 51 -23 47 -38 -1 -7 -1 -8 2 -4 5 9 32 -11 32 -25 0 -5 -4 -6 -10 -3 -5
3 -10 1 -10 -5 0 -7 6 -10 14 -7 8 3 22 -3 31 -13 39 -43 137 -37 153 8 6 15
13 34 17 43 5 13 -2 18 -35 23 -60 9 -135 50 -165 90 -60 79 -73 213 -29 306
19 39 26 69 25 103 -2 26 0 61 4 77 9 40 43 40 119 1 55 -28 59 -28 132 -18
53 8 95 8 148 0 73 -10 77 -10 132 18 76 39 110 39 119 -1 4 -16 6 -51 4 -77
-1 -34 6 -64 25 -103 44 -93 31 -227 -29 -306 -31 -41 -108 -82 -169 -90 l-45
-7 17 -25 c13 -20 18 -57 22 -151 6 -151 6 -151 119 -95 95 46 211 159 259
251 42 80 72 198 72 283 0 85 -30 203 -72 283 -42 81 -164 203 -245 245 -132
69 -291 88 -431 52z"></path>
      <path d="M290 240 c0 -5 5 -10 10 -10 6 0 10 5 10 10 0 6 -4 10 -10 10 -5 0
-10 -4 -10 -10z"></path>
      <path d="M330 220 c0 -5 5 -10 10 -10 6 0 10 5 10 10 0 6 -4 10 -10 10 -5 0
-10 -4 -10 -10z"></path>
      <path d="M425 220 c-3 -5 1 -10 10 -10 9 0 13 5 10 10 -3 6 -8 10 -10 10 -2 0
-7 -4 -10 -10z"></path>
      <path d="M380 210 c0 -5 5 -10 10 -10 6 0 10 5 10 10 0 6 -4 10 -10 10 -5 0
-10 -4 -10 -10z"></path>
    </g>
  </symbol>
  <symbol version="1.0" xmlns="http://www.w3.org/2000/svg" preserveAspectRatio="xMidYMid meet" viewBox="0 0 96.000000 96.000000" id="In-Blue-48_2x">
    <g transform="translate(0.000000,96.000000) scale(0.100000,-0.100000)" fill="#0077b5" stroke="none">
      <path d="M25 935 l-25 -24 0 -431 0 -431 25 -24 24 -25 431 0 431 0 24 25 25
24 0 431 0 431 -25 24 -24 25 -431 0 -431 0 -24 -25z m242 -127 c51 -48 15
-138 -56 -138 -47 0 -81 32 -81 79 0 72 84 109 137 59z m469 -223 c72 -43 84
-81 84 -278 l0 -167 -70 0 -70 0 0 129 c0 135 -10 185 -40 201 -32 17 -78 11
-107 -14 -28 -24 -28 -24 -31 -170 l-3 -146 -70 0 -69 0 0 230 0 230 65 0 c63
0 65 -1 65 -25 0 -29 12 -32 31 -8 40 48 148 57 215 18z m-456 -215 l0 -230
-70 0 -70 0 0 230 0 230 70 0 70 0 0 -230z"></path>
    </g>
  </symbol>
</svg>