<svg width="0" height="0" class="hidden">
  <symbol version="1.0" xmlns="http://www.w3.org/2000/svg" preserveAspectRatio="xMidYMid meet" viewBox="0 0 1000.000000 410.000000" id="GitHub_Logo">
    <g transform="translate(0.000000,410.000000) scale(0.100000,-0.100000)" fill="#000000" stroke="none">
      <path d="M1475 3229 c-432 -59 -678 -318 -767 -809 -29 -160 -31 -545 -4 -695
47 -256 135 -438 276 -569 113 -104 244 -167 432 -207 85 -19 136 -23 293 -23
201 0 259 7 405 51 94 28 224 85 252 110 17 15 18 50 18 578 0 423 -3 564 -12
573 -9 9 -108 12 -384 12 -325 0 -375 -2 -388 -16 -13 -13 -16 -45 -16 -198 0
-128 4 -186 12 -194 8 -8 58 -12 160 -12 l148 0 0 -220 0 -220 -27 -7 c-16 -5
-100 -8 -188 -8 -143 1 -166 3 -218 24 -126 50 -227 184 -267 356 -40 167 -43
458 -6 617 69 297 235 418 573 418 132 0 207 -10 336 -42 68 -18 90 -20 96
-10 4 6 27 94 50 194 l43 182 -22 18 c-30 24 -163 65 -273 84 -111 18 -425 27
-522 13z"></path>
      <path d="M4512 3148 c-17 -17 -17 -2159 0 -2176 17 -17 429 -17 446 0 9 9 12
128 12 475 l0 463 320 0 320 0 0 -465 c0 -449 1 -465 19 -475 12 -6 102 -10
225 -10 173 0 207 2 220 16 14 14 16 126 16 1084 0 958 -2 1070 -16 1084 -13
14 -47 16 -220 16 -123 0 -213 -4 -225 -10 -18 -10 -19 -25 -19 -410 l0 -400
-320 0 -320 0 0 398 c0 296 -3 401 -12 410 -17 17 -429 17 -446 0z"></path>
      <path d="M7896 3144 c-14 -14 -16 -126 -16 -1084 0 -958 2 -1070 16 -1084 13
-13 42 -16 164 -16 163 0 180 6 180 58 0 15 4 34 10 42 8 12 11 12 27 -2 33
-30 162 -89 241 -110 106 -28 320 -30 407 -4 262 79 374 284 391 721 20 484
-120 763 -414 824 -141 29 -340 7 -476 -53 -32 -14 -60 -26 -62 -26 -2 0 -4
164 -4 365 0 350 -1 365 -19 375 -12 6 -102 10 -225 10 -173 0 -207 -2 -220
-16z m822 -1053 c92 -47 126 -148 127 -376 0 -317 -51 -405 -235 -405 -80 0
-191 26 -234 54 l-26 16 0 336 0 335 48 20 c121 52 242 60 320 20z"></path>
      <path d="M2795 3100 c-121 -31 -193 -115 -203 -235 -6 -79 14 -140 66 -197
162 -180 455 -65 454 177 0 46 -7 79 -22 109 -53 111 -183 175 -295 146z"></path>
      <path d="M3503 2882 c-9 -6 -13 -66 -15 -221 l-3 -214 -113 -27 c-63 -15 -118
-32 -123 -37 -5 -5 -8 -74 -7 -159 l3 -149 120 -5 120 -5 5 -395 c6 -418 6
-425 57 -524 47 -91 163 -172 290 -202 126 -29 401 -13 449 27 19 15 20 324 2
335 -7 4 -49 7 -94 5 -148 -4 -215 30 -234 122 -6 32 -9 162 -8 342 l3 290
160 3 c136 2 162 5 173 19 15 21 17 325 2 354 -10 18 -23 19 -175 19 l-165 0
0 209 c0 181 -2 210 -16 215 -23 9 -417 7 -431 -2z"></path>
      <path d="M2622 2448 c-9 -9 -12 -186 -12 -734 0 -658 1 -723 17 -735 12 -11
65 -15 219 -17 194 -3 204 -2 223 17 21 21 21 28 21 739 0 545 -3 721 -12 730
-17 17 -439 17 -456 0z"></path>
      <path d="M6302 2451 c-10 -6 -12 -122 -10 -592 l3 -584 26 -68 c58 -147 139
-219 300 -263 48 -14 101 -18 214 -18 134 1 159 3 240 28 50 15 126 44 170 66
44 21 83 36 87 33 5 -2 8 -17 8 -33 0 -54 17 -60 169 -60 93 0 141 4 149 12 9
9 12 188 12 744 0 658 -2 732 -16 738 -31 12 -429 7 -442 -6 -9 -9 -12 -143
-12 -541 l0 -528 -67 -32 c-62 -29 -76 -32 -170 -32 -87 0 -105 3 -130 21 -64
47 -63 37 -63 591 0 443 -2 503 -16 517 -13 14 -48 16 -227 16 -117 0 -218 -4
-225 -9z"></path>
    </g>
  </symbol>
  <symbol version="1.0" xmlns="http://www.w3.org/2000/svg" preserveAspectRatio="xMidYMid meet" viewBox="0 0 2212.000000 540.000000" id="LI-Logo_1">
    <g transform="translate(0.000000,540.000000) scale(0.100000,-0.100000)" fill="#000000" stroke="none">
      <path d="M16099 5390 c-118 -20 -245 -123 -291 -237 l-23 -58 0 -2375 0 -2375
32 -67 c42 -89 101 -151 182 -191 l66 -32 2390 0 2390 0 57 27 c80 37 152 107
191 187 l32 66 0 2385 0 2385 -32 67 c-55 118 -161 197 -289 218 -71 12 -4636
12 -4705 0z m1013 -751 c128 -43 215 -121 277 -249 35 -72 36 -79 36 -185 0
-129 -20 -190 -88 -280 -136 -179 -380 -235 -579 -134 -54 28 -153 122 -185
177 -150 256 -18 586 272 678 65 21 196 17 267 -7z m2427 -1189 c140 -15 240
-42 350 -96 77 -38 109 -61 175 -128 45 -44 96 -107 115 -139 74 -126 127
-313 150 -529 7 -60 11 -407 11 -913 l0 -815 -394 0 -394 0 -4 748 c-4 659 -7
757 -22 832 -33 160 -98 259 -205 309 -52 24 -66 26 -197 26 l-140 0 -76 -38
c-88 -43 -134 -91 -178 -182 -62 -132 -63 -137 -69 -950 l-6 -740 -395 0 -395
0 -3 1278 -2 1277 385 0 385 0 1 -172 0 -173 22 29 c110 145 195 222 316 285
172 89 334 115 570 91z m-2171 -1337 l-3 -1278 -395 0 -395 0 -3 1278 -2 1277
400 0 400 0 -2 -1277z"></path>
      <path d="M3000 4644 c-120 -32 -229 -125 -288 -242 -34 -69 -37 -84 -40 -176
-3 -84 0 -112 18 -165 57 -171 198 -289 369 -310 216 -27 396 74 487 273 36
79 44 208 19 302 -42 156 -178 287 -336 323 -62 15 -164 12 -229 -5z"></path>
      <path d="M10 2720 l0 -1880 1175 0 1175 0 0 380 0 380 -765 0 -765 0 0 1500 0
1500 -410 0 -410 0 0 -1880z"></path>
      <path d="M6840 2720 l0 -1880 395 0 395 0 0 630 c0 347 3 630 8 630 4 0 196
-284 426 -630 l419 -630 498 0 498 0 -504 680 c-278 374 -505 685 -505 690 0
9 521 606 923 1058 l109 122 -489 -1 -488 0 -445 -516 -445 -516 -3 1121 -2
1122 -395 0 -395 0 0 -1880z"></path>
      <path d="M14190 3867 l0 -734 -89 88 c-76 75 -103 94 -192 138 -174 84 -360
118 -593 108 -504 -21 -894 -353 -1056 -899 -86 -289 -82 -676 9 -954 119
-364 375 -634 721 -759 129 -46 235 -66 395 -72 172 -6 270 8 411 58 146 53
322 177 409 287 22 28 43 51 48 52 4 0 7 -76 7 -170 l0 -170 360 0 360 0 0
1880 0 1880 -395 0 -395 0 0 -733z m-384 -1112 c142 -37 254 -113 333 -226
140 -198 158 -507 44 -738 -69 -139 -194 -240 -363 -292 -97 -30 -280 -33
-380 -6 -222 59 -372 210 -431 434 -29 108 -29 287 -1 394 66 249 246 408 505
450 70 11 220 2 293 -16z"></path>
      <path d="M10576 3459 c-563 -59 -1006 -396 -1170 -889 -55 -167 -69 -280 -63
-499 4 -164 8 -199 35 -301 110 -422 392 -734 812 -895 190 -74 460 -110 685
-94 255 19 463 92 685 240 95 64 285 239 279 257 -5 13 -535 402 -546 401 -5
0 -26 -24 -49 -52 -83 -106 -227 -198 -364 -233 -80 -21 -226 -23 -300 -5
-196 47 -367 202 -429 388 -12 34 -21 72 -21 83 0 20 2 20 920 20 l920 0 0 98
c-2 392 -49 652 -161 874 -80 159 -194 298 -328 398 -227 170 -555 246 -905
209z m237 -574 c32 -8 81 -27 109 -41 69 -35 168 -135 201 -204 29 -59 61
-194 53 -217 -4 -11 -100 -13 -526 -13 l-520 0 0 29 c0 51 39 157 81 220 73
110 186 192 312 226 69 18 219 19 290 0z"></path>
      <path d="M5274 3436 c-198 -45 -384 -170 -503 -336 l-46 -65 -3 178 -2 177
-380 0 -380 0 0 -1275 0 -1275 395 0 395 0 0 664 c0 388 4 706 10 765 17 166
59 277 133 358 76 83 158 120 289 130 184 14 323 -54 391 -192 68 -136 76
-252 77 -1072 l0 -653 390 0 390 0 0 818 c0 661 -3 841 -15 942 -57 477 -237
720 -603 817 -84 22 -122 26 -287 29 -137 3 -207 0 -251 -10z"></path>
      <path d="M2730 2115 l0 -1275 395 0 395 0 0 1275 0 1275 -395 0 -395 0 0
-1275z"></path>
      <path d="M21662 730 c-103 -22 -202 -104 -250 -208 -23 -48 -27 -71 -27 -147
0 -82 3 -97 32 -156 39 -79 102 -140 181 -177 48 -23 71 -27 147 -27 76 0 99
4 147 27 79 37 142 98 181 177 29 59 32 74 32 156 0 82 -3 97 -32 156 -60 121
-167 194 -298 203 -39 3 -89 1 -113 -4z m210 -58 c155 -68 235 -252 178 -407
-46 -123 -177 -215 -305 -215 -172 0 -325 153 -325 325 0 137 97 267 233 311
57 19 161 12 219 -14z"></path>
      <path d="M21620 370 l0 -190 25 0 c24 0 24 2 27 83 l3 82 31 3 c29 3 34 -2 85
-82 47 -75 57 -86 82 -86 32 0 33 -4 -25 82 -54 80 -54 82 -13 97 58 21 81 90
51 150 -21 40 -56 51 -166 51 l-100 0 0 -190z m206 125 c18 -18 23 -31 19 -48
-12 -42 -42 -57 -111 -57 l-64 0 0 65 0 65 65 0 c57 0 69 -3 91 -25z"></path>
    </g>
  </symbol>
</svg>