<?xml version="1.0" standalone="no"?>
<!DOCTYPE svg PUBLIC "-//W3C//DTD SVG 20010904//EN"
 "http://www.w3.org/TR/2001/REC-SVG-20010904/DTD/svg10.dtd">
<svg version="1.0" xmlns="http://www.w3.org/2000/svg"
 width="504.000000pt" height="58.000000pt" viewBox="0 0 504.000000 58.000000"
 preserveAspectRatio="xMidYMid meet">

<g transform="translate(0.000000,58.000000) scale(0.100000,-0.100000)"
fill="white" stroke="white">
<path d="M108 563 c-15 -2 -37 -16 -49 -31 -19 -24 -20 -35 -15 -92 4 -36 9
-80 12 -97 6 -29 3 -34 -22 -44 l-29 -12 25 -6 c28 -8 28 -11 15 -141 -7 -72
-6 -76 18 -99 18 -16 41 -24 74 -27 44 -4 46 -3 16 6 -18 6 -35 15 -38 21 -4
5 1 52 10 103 18 99 12 136 -22 136 -12 0 -9 6 11 25 31 28 31 29 10 135 -17
89 -14 110 13 110 10 0 25 5 33 10 12 8 10 9 -10 8 -14 0 -37 -3 -52 -5z"/>
<path d="M4870 561 c8 -6 23 -11 33 -11 28 0 30 -23 13 -120 -18 -94 -12 -130
19 -130 8 0 15 -4 15 -10 0 -5 -7 -10 -15 -10 -31 0 -36 -36 -20 -127 21 -121
21 -119 -22 -131 l-38 -10 33 -1 c50 -2 100 23 108 54 4 15 3 57 -1 93 -13
112 -13 117 13 120 12 2 22 7 22 12 0 5 -10 10 -22 12 -25 3 -25 1 -13 138 7
71 6 76 -17 97 -15 15 -42 25 -74 29 -36 4 -45 3 -34 -5z"/>
<path d="M438 503 c22 -15 22 -20 22 -209 0 -173 -2 -194 -17 -203 -13 -8 8
-10 77 -10 52 1 87 3 78 6 -16 4 -18 18 -18 104 l0 99 80 0 c47 0 80 4 80 10
0 6 -33 10 -80 10 l-80 0 0 95 0 95 70 0 c62 0 74 -3 95 -24 13 -13 27 -36 31
-50 11 -47 25 -27 22 32 l-3 57 -190 2 c-176 2 -188 1 -167 -14z"/>
<path d="M868 504 c21 -16 22 -21 22 -210 0 -173 -2 -194 -17 -203 -13 -8 8
-10 77 -10 52 1 87 3 78 6 -16 4 -18 18 -18 104 l0 99 29 0 c45 0 70 -28 81
-90 14 -77 28 -106 56 -119 49 -22 144 -9 144 21 0 6 -6 5 -16 -3 -22 -18 -40
6 -49 69 -10 68 -31 102 -66 109 -41 8 -45 19 -9 27 47 9 80 48 80 93 0 91
-49 113 -259 119 -147 5 -155 4 -133 -12z m242 -24 c16 -16 20 -33 20 -79 0
-52 -3 -62 -26 -80 -15 -12 -41 -21 -60 -21 l-34 0 0 100 0 100 40 0 c27 0 47
-7 60 -20z"/>
<path d="M1479 492 c-73 -38 -102 -94 -102 -196 0 -144 65 -215 208 -224 166
-10 255 67 255 223 0 150 -77 224 -231 225 -65 0 -85 -4 -130 -28z m186 -5
c23 -19 28 -35 37 -108 7 -58 6 -114 0 -170 -9 -71 -14 -87 -37 -106 -45 -40
-114 -24 -137 31 -14 34 -18 262 -5 309 18 66 90 89 142 44z"/>
<path d="M1918 508 c22 -11 22 -13 22 -214 0 -184 -2 -203 -17 -207 -10 -3 0
-5 22 -6 32 0 36 2 23 10 -16 9 -18 29 -18 194 0 102 4 185 8 185 4 0 77 -88
161 -195 85 -107 160 -195 167 -195 11 0 14 39 14 206 0 185 2 208 18 220 15
12 12 13 -28 13 -40 0 -43 -1 -27 -13 15 -12 17 -28 15 -130 l-3 -116 -103
130 -104 130 -86 -1 c-70 0 -83 -2 -64 -11z"/>
<path d="M2374 506 c-3 -7 -4 -38 -2 -67 l3 -54 19 35 c31 58 56 80 93 80 l33
0 0 -204 c0 -154 -3 -206 -12 -209 -7 -3 30 -5 82 -5 52 0 87 2 78 5 -16 4
-18 23 -18 209 l0 204 31 0 c45 0 69 -17 90 -66 11 -24 22 -44 24 -44 3 0 5
29 5 65 l0 65 -210 0 c-169 0 -212 -3 -216 -14z"/>
<path d="M3043 506 c15 -12 17 -34 17 -214 0 -183 -2 -201 -17 -205 -10 -3 71
-5 180 -6 l197 -1 0 60 c0 33 -2 60 -5 60 -3 0 -14 -20 -25 -44 -26 -54 -52
-66 -140 -66 l-70 0 0 100 0 100 85 0 c50 0 85 4 85 10 0 6 -35 10 -85 10
l-85 0 0 95 0 95 75 0 c67 0 79 -3 100 -24 13 -13 27 -36 31 -50 11 -46 24
-28 24 34 l0 60 -192 0 c-163 -1 -190 -3 -175 -14z"/>
<path d="M3503 506 c15 -12 17 -34 17 -214 0 -183 -2 -201 -17 -205 -10 -3 0
-5 22 -6 32 0 36 2 23 10 -16 9 -18 29 -18 194 0 102 4 185 9 185 4 0 77 -88
162 -195 84 -107 159 -195 166 -195 10 0 13 43 13 206 0 185 2 208 18 220 15
12 12 13 -28 13 -40 0 -43 -1 -27 -13 15 -12 17 -28 15 -130 l-3 -116 -102
130 -103 130 -82 0 c-71 -1 -81 -3 -65 -14z"/>
<path d="M3973 507 c15 -13 17 -36 17 -215 0 -151 -3 -202 -12 -205 -27 -11
255 -6 299 4 58 15 117 70 132 124 35 127 -13 244 -117 280 -65 23 -346 33
-319 12z m247 -20 c44 -22 60 -70 60 -182 0 -164 -21 -204 -110 -213 l-50 -5
0 207 0 206 38 0 c20 0 48 -6 62 -13z"/>
<path d="M4520 372 c-31 -25 -21 -69 17 -78 51 -13 82 38 47 77 -21 24 -36 24
-64 1z"/>
<path d="M4516 154 c-26 -26 -17 -74 14 -74 28 0 33 -17 16 -51 -20 -41 1 -34
32 11 28 42 30 105 3 120 -27 14 -47 13 -65 -6z"/>
</g>
</svg>
