<?xml version="1.0" standalone="no"?>
<!DOCTYPE svg PUBLIC "-//W3C//DTD SVG 20010904//EN"
 "http://www.w3.org/TR/2001/REC-SVG-20010904/DTD/svg10.dtd">
<svg version="1.0" xmlns="http://www.w3.org/2000/svg"
 width="402.000000pt" height="48.000000pt" viewBox="0 0 402.000000 48.000000"
 preserveAspectRatio="xMidYMid meet">

<g transform="translate(0.000000,48.000000) scale(0.100000,-0.100000)"
fill="#000000" stroke="none">
<path d="M1106 455 c-58 -21 -88 -46 -113 -95 -30 -58 -32 -175 -4 -237 66
-145 356 -145 422 0 28 62 26 179 -3 237 -37 72 -111 110 -213 110 -27 -1 -68
-7 -89 -15z m156 -23 c26 -26 41 -124 35 -233 -7 -135 -27 -169 -98 -169 -77
0 -94 40 -94 215 1 141 14 187 58 205 29 13 78 4 99 -18z"/>
<path d="M28 450 c22 -9 22 -11 22 -210 0 -199 0 -201 -22 -210 -16 -6 12 -9
87 -9 85 1 104 3 83 11 -28 10 -28 10 -28 109 l0 99 83 2 82 2 -80 5 -80 6 -3
98 -3 97 61 0 c78 0 113 -18 134 -70 9 -22 18 -40 21 -40 3 0 5 27 5 60 l0 60
-192 -1 c-126 0 -185 -3 -170 -9z"/>
<path d="M458 450 c22 -9 22 -11 22 -210 0 -199 0 -201 -22 -210 -16 -6 12 -9
87 -9 85 1 104 3 83 11 -28 10 -28 10 -28 104 l0 94 40 0 c48 0 64 -21 75 -95
8 -58 28 -100 50 -109 30 -11 122 -6 134 7 8 11 6 13 -11 13 -23 -1 -22 -1
-48 99 -14 55 -21 64 -64 79 l-37 13 46 17 c52 20 65 39 65 94 0 53 -28 87
-84 101 -54 13 -342 14 -308 1z m226 -12 c31 -13 39 -37 38 -103 -1 -61 -25
-85 -83 -85 l-39 0 0 100 0 100 30 0 c16 0 40 -5 54 -12z"/>
<path d="M1513 453 c15 -4 17 -23 17 -209 0 -203 0 -205 -22 -214 -19 -7 -13
-9 26 -9 42 -1 47 1 33 12 -16 11 -17 32 -15 200 l3 187 158 -200 c87 -110
163 -200 168 -200 5 0 9 88 9 210 0 209 0 211 23 220 17 7 11 9 -28 8 -27 0
-42 -2 -32 -5 15 -4 17 -19 17 -124 0 -65 -1 -119 -3 -119 -2 0 -47 56 -101
125 l-99 125 -86 -1 c-47 -1 -78 -3 -68 -6z"/>
<path d="M1970 398 l1 -63 23 44 c25 48 56 70 99 71 l27 0 0 -203 c0 -202 0
-204 -22 -215 -18 -8 -1 -11 82 -11 72 0 98 3 83 9 -23 9 -23 11 -23 215 l0
205 25 0 c43 0 74 -22 96 -67 11 -23 23 -43 25 -43 2 0 4 27 4 60 l0 60 -210
0 -210 0 0 -62z"/>
<path d="M2633 453 c15 -4 17 -23 17 -209 0 -203 0 -205 -22 -214 -15 -6 48
-9 180 -9 l202 -1 0 60 c0 33 -2 60 -6 60 -3 0 -12 -16 -20 -35 -20 -49 -53
-67 -134 -73 l-70 -5 0 106 0 106 83 4 82 3 -82 2 -83 2 0 100 0 100 59 0 c83
0 106 -11 135 -67 l25 -48 1 63 0 62 -192 -1 c-106 -1 -185 -3 -175 -6z"/>
<path d="M3093 453 c15 -4 17 -23 17 -209 0 -203 0 -205 -22 -214 -19 -7 -13
-9 26 -9 42 -1 47 1 33 12 -16 11 -17 32 -15 201 l3 188 158 -201 c87 -111
163 -201 168 -201 5 0 9 87 9 210 0 209 0 211 23 220 17 7 12 9 -28 9 -40 0
-45 -2 -27 -9 21 -9 22 -15 22 -119 0 -60 -4 -112 -8 -115 -5 -3 -52 51 -106
120 l-98 124 -87 -1 c-47 -1 -78 -3 -68 -6z"/>
<path d="M3568 450 c22 -9 22 -11 22 -208 0 -196 0 -199 -22 -210 -38 -18 215
-15 286 3 109 28 146 74 154 187 8 121 -36 192 -140 223 -58 17 -342 22 -300
5z m238 -15 c51 -21 67 -67 68 -190 0 -158 -23 -200 -114 -207 l-45 -3 -3 208
-2 207 30 0 c17 0 46 -7 66 -15z"/>
</g>
</svg>
