<svg width="0" height="0" class="hidden">
  <symbol version="1.0" xmlns="http://www.w3.org/2000/svg" preserveAspectRatio="xMidYMid meet" viewBox="0 0 120.000000 120.000000" id="GitHub-Mark-120px-plus">
    <g transform="translate(0.000000,120.000000) scale(0.100000,-0.100000)" fill="#f1502f" stroke="none">
      <path d="M452 1170 c-109 -29 -187 -74 -272 -160 -87 -86 -131 -163 -160 -276
-36 -141 -18 -294 52 -427 48 -92 164 -205 259 -251 103 -51 113 -48 117 35
l3 66 -59 0 c-75 0 -116 23 -147 84 -13 26 -38 58 -55 73 -36 29 -31 51 9 41
32 -8 51 -23 47 -38 -1 -7 -1 -8 2 -4 5 9 32 -11 32 -25 0 -5 -4 -6 -10 -3 -5
3 -10 1 -10 -5 0 -7 6 -10 14 -7 8 3 22 -3 31 -13 39 -43 137 -37 153 8 6 15
13 34 17 43 5 13 -2 18 -35 23 -60 9 -135 50 -165 90 -60 79 -73 213 -29 306
19 39 26 69 25 103 -2 26 0 61 4 77 9 40 43 40 119 1 55 -28 59 -28 132 -18
53 8 95 8 148 0 73 -10 77 -10 132 18 76 39 110 39 119 -1 4 -16 6 -51 4 -77
-1 -34 6 -64 25 -103 44 -93 31 -227 -29 -306 -31 -41 -108 -82 -169 -90 l-45
-7 17 -25 c13 -20 18 -57 22 -151 6 -151 6 -151 119 -95 95 46 211 159 259
251 42 80 72 198 72 283 0 85 -30 203 -72 283 -42 81 -164 203 -245 245 -132
69 -291 88 -431 52z"></path>
      <path d="M290 240 c0 -5 5 -10 10 -10 6 0 10 5 10 10 0 6 -4 10 -10 10 -5 0
-10 -4 -10 -10z"></path>
      <path d="M330 220 c0 -5 5 -10 10 -10 6 0 10 5 10 10 0 6 -4 10 -10 10 -5 0
-10 -4 -10 -10z"></path>
      <path d="M425 220 c-3 -5 1 -10 10 -10 9 0 13 5 10 10 -3 6 -8 10 -10 10 -2 0
-7 -4 -10 -10z"></path>
      <path d="M380 210 c0 -5 5 -10 10 -10 6 0 10 5 10 10 0 6 -4 10 -10 10 -5 0
-10 -4 -10 -10z"></path>
    </g>
  </symbol>
  <symbol version="1.0" xmlns="http://www.w3.org/2000/svg" preserveAspectRatio="xMidYMid meet" viewBox="0 0 383.000000 383.000000" id="Git-Icon">
    <g transform="translate(0.000000,383.000000) scale(0.100000,-0.100000)" fill="rgb(194, 194, 194)" stroke="none">
      <path d="M1855 3821 c-60 -15 -93 -43 -275 -225 l-185 -186 218 -218 218 -218
49 10 c186 38 368 -147 333 -339 l-9 -54 203 -203 203 -203 98 0 c89 0 101 -2
151 -30 50 -28 104 -83 130 -132 26 -50 33 -130 17 -194 -54 -209 -282 -294
-459 -172 -54 37 -95 101 -113 176 -14 56 -14 70 -2 120 l15 56 -194 193 -193
193 0 -512 0 -511 63 -64 c50 -50 67 -75 81 -122 33 -106 6 -216 -74 -296 -59
-59 -119 -84 -205 -84 -89 -1 -166 34 -224 100 -117 133 -87 345 64 440 l45
29 0 521 0 521 -48 30 c-53 33 -106 105 -123 167 -11 40 -8 147 5 176 4 11
-58 79 -209 230 l-215 215 -586 -585 c-347 -347 -594 -601 -606 -625 -31 -57
-30 -155 0 -215 32 -62 1721 -1749 1784 -1781 50 -26 132 -30 193 -10 33 11
195 168 908 880 633 632 873 878 889 911 30 61 29 149 -1 210 -32 63 -1717
1749 -1779 1780 -48 24 -122 33 -167 21z"></path>
    </g>
  </symbol>
  <symbol version="1.0" xmlns="http://www.w3.org/2000/svg" preserveAspectRatio="xMidYMid meet" viewBox="0 0 28.000000 28.000000" id="In-Blue-14_2x">
    <g transform="translate(0.000000,28.000000) scale(0.100000,-0.100000)" fill="rgb(194, 194, 194)" stroke="none">
      <path d="M4 267 c-2 -7 -3 -69 -2 -138 l3 -124 135 0 135 0 0 135 0 135 -133
3 c-103 2 -134 0 -138 -11z m76 -33 c11 -12 10 -18 -3 -32 -16 -15 -18 -15
-34 0 -13 14 -14 20 -3 32 7 9 16 16 20 16 4 0 13 -7 20 -16z m140 -64 c15
-15 20 -33 20 -75 0 -48 -2 -55 -20 -55 -16 0 -20 7 -20 38 0 50 -14 71 -37
56 -12 -7 -19 -26 -21 -53 -3 -33 -7 -41 -23 -41 -17 0 -19 7 -19 71 0 70 0
71 24 67 14 -3 31 -1 38 3 21 14 37 10 58 -11z m-140 -60 c0 -63 -2 -70 -20
-70 -18 0 -20 7 -20 70 0 63 2 70 20 70 18 0 20 -7 20 -70z"></path>
    </g>
  </symbol>
</svg>